<?xml version="1.0" encoding="UTF-8" standalone="no"?>
<svg
   xmlns:dc="http://purl.org/dc/elements/1.1/"
   xmlns:cc="http://creativecommons.org/ns#"
   xmlns:rdf="http://www.w3.org/1999/02/22-rdf-syntax-ns#"
   xmlns:svg="http://www.w3.org/2000/svg"
   xmlns="http://www.w3.org/2000/svg"
   xmlns:sodipodi="http://sodipodi.sourceforge.net/DTD/sodipodi-0.dtd"
   xmlns:inkscape="http://www.inkscape.org/namespaces/inkscape"
   viewBox="0 0 64 64"
   enable-background="new 0 0 64 64"
   version="1.1"
   id="svg24"
   sodipodi:docname="microscope.svg"
   inkscape:export-filename="/home/quentin/comput/qgeissmann.github.io-git/themes/hugo-academic/static/img/icon.png"
   inkscape:export-xdpi="240"
   inkscape:export-ydpi="240"
   inkscape:version="0.92.2 5c3e80d, 2017-08-06">
  <metadata
     id="metadata30">
    <rdf:RDF>
      <cc:Work
         rdf:about="">
        <dc:format>image/svg+xml</dc:format>
        <dc:type
           rdf:resource="http://purl.org/dc/dcmitype/StillImage" />
      </cc:Work>
    </rdf:RDF>
  </metadata>
  <defs
     id="defs28" />
  <sodipodi:namedview
     pagecolor="#ffffff"
     bordercolor="#666666"
     borderopacity="1"
     objecttolerance="10"
     gridtolerance="10"
     guidetolerance="10"
     inkscape:pageopacity="0"
     inkscape:pageshadow="2"
     inkscape:window-width="1920"
     inkscape:window-height="1013"
     id="namedview26"
     showgrid="false"
     inkscape:zoom="3.6875"
     inkscape:cx="32"
     inkscape:cy="-33.084746"
     inkscape:window-x="0"
     inkscape:window-y="30"
     inkscape:window-maximized="1"
     inkscape:current-layer="svg24" />
  <path
     fill="#86a7ac"
     d="m34.05 17.889c0 0 25.08 3.686 13.163 40.43l-13.856 3.455c0 0 24.637-31.343-2.097-39.43l2.79-4.451"
     id="path2" />
  <path
     fill="#63797b"
     d="m50.49 6.884c.681.816.772 1.929.211 2.495l-7.37 7.38c-.561.563-1.566.359-2.244-.455l-1.652-1.979c-.678-.811-.773-1.93-.211-2.49l7.371-7.382c.563-.563 1.568-.359 2.246.453l1.649 1.978"
     id="path4" />
  <path
     fill="#9fbcbf"
     d="m48.833 10.964c1.4 1.677 1.594 3.979.436 5.143l-15.208 15.229c-1.16 1.162-3.235.743-4.637-.937l-3.404-4.082c-1.4-1.679-1.594-3.981-.436-5.145l15.21-15.229c1.158-1.162 3.233-.743 4.635.934l3.404 4.087"
     id="path6" />
  <path
     fill="#86a7ac"
     d="m44.18 14.705c1.059 1.269.963 3.253-.213 4.429l-15.414 15.438c-1.175 1.176-2.989 1.103-4.045-.166l-2.572-3.084c-1.058-1.269-.961-3.25.214-4.429l15.414-15.438c1.176-1.175 2.986-1.103 4.046.166l2.57 3.084"
     id="path8" />
  <path
     fill="#9fbcbf"
     d="m46.43.294c.474-.472 1.266-.363 1.771.245l6.642 7.963c.505.605.536 1.483.063 1.954l-1.145 1.148c-.474.474-1.266.363-1.771-.244l-6.642-7.965c-.505-.608-.536-1.481-.063-1.953l1.145-1.148"
     id="path10" />
  <path
     fill="#63797b"
     d="m23.04 23.477c.47-.474 1.266-.363 1.77.246l6.642 7.963c.505.605.533 1.483.063 1.954l-1.146 1.149c-.474.472-1.265.361-1.77-.247l-6.642-7.962c-.508-.607-.536-1.485-.065-1.956l1.148-1.147"
     id="path12" />
  <g
     fill="#57c6e9"
     id="g18">
    <path
       d="m13.178 27.909c.605-.608 1.852-.193 2.787.923l12.221 14.661c.935 1.12 1.198 2.517.591 3.125l-1.473 1.477c-.606.605-1.852.193-2.785-.927l-12.226-14.658c-.93-1.119-1.196-2.519-.588-3.124l1.473-1.477"
       id="path14" />
    <path
       d="m10.239 38.601c.377-.381 1.155-.121 1.739.577l7.631 9.152c.583.698.747 1.573.37 1.95l-.92.923c-.38.377-1.158.121-1.739-.577l-7.633-9.156c-.582-.695-.748-1.57-.367-1.95l.919-.919"
       id="path16" />
  </g>
  <ellipse
     fill="#63797b"
     cx="40.837"
     cy="54.14"
     rx="11.733"
     ry="9.464"
     id="ellipse20" />
  <path
     fill="#86a7ac"
     d="m58.58 59.29c0 2.602-1.573 4.713-3.518 4.713h-47.626c-1.943 0-3.517-2.111-3.517-4.713 0-2.604 1.573-4.713 3.517-4.713h47.626c1.945 0 3.518 2.11 3.518 4.713"
     id="path22" />
</svg>
